<svg xmlns="http://www.w3.org/2000/svg" xmlns:xlink="http://www.w3.org/1999/xlink" width="213" zoomAndPan="magnify" viewBox="0 0 159.75 169.5" height="226" preserveAspectRatio="xMidYMid meet" version="1.0"><defs><g/><clipPath id="96034c5a18"><path d="M 0.109375 0 L 158.644531 0 L 158.644531 158.53125 L 0.109375 158.53125 Z M 0.109375 0 " clip-rule="nonzero"/></clipPath></defs><g clip-path="url(#96034c5a18)"><path fill="#ffffff" d="M 25.59375 124.785156 C 38.515625 140.039062 57.816406 149.726562 79.375 149.726562 C 118.289062 149.726562 149.835938 118.179688 149.835938 79.265625 C 149.835938 40.351562 118.289062 8.808594 79.375 8.808594 C 41.035156 8.808594 9.851562 39.429688 8.9375 77.550781 C 9.90625 77.582031 10.820312 77.878906 11.679688 78.433594 L 22.296875 84.847656 C 23.847656 85.851562 25.578125 86.003906 27.496094 85.304688 L 58.070312 74.167969 C 58.769531 73.914062 59.238281 73.449219 59.488281 72.773438 C 59.734375 72.09375 59.558594 71.472656 58.957031 70.910156 L 28.652344 36.414062 C 28.226562 35.785156 28.09375 35.148438 28.253906 34.5 C 28.410156 33.855469 28.839844 33.40625 29.535156 33.152344 L 38.945312 29.726562 C 40.6875 29.089844 42.363281 29.363281 43.976562 30.539062 L 87.796875 60.699219 C 89.234375 61.941406 90.910156 62.210938 92.828125 61.511719 L 120.265625 51.519531 C 122.007812 50.886719 123.757812 50.542969 125.515625 50.488281 L 127.628906 50.601562 C 128.859375 50.738281 130.277344 51.105469 131.875 51.699219 C 133.46875 52.292969 134.664062 53.132812 135.453125 54.214844 C 135.753906 54.496094 135.992188 54.753906 136.175781 54.980469 C 136.355469 55.207031 136.476562 55.40625 136.542969 55.582031 C 136.96875 56.210938 137.273438 56.78125 137.464844 57.300781 C 137.652344 57.820312 137.753906 58.371094 137.769531 58.953125 C 138.503906 62.601562 136.777344 66.265625 132.59375 69.945312 C 131.277344 71.207031 129.746094 72.15625 128.003906 72.789062 L 100.566406 82.785156 C 98.648438 83.480469 97.539062 84.765625 97.234375 86.640625 L 83.039062 137.929688 C 82.5625 139.867188 81.449219 141.152344 79.707031 141.789062 L 70.300781 145.214844 C 69.605469 145.46875 68.988281 145.398438 68.449219 145.007812 C 67.914062 144.613281 67.605469 144.039062 67.527344 143.285156 L 68.582031 97.367188 C 68.679688 96.550781 68.457031 95.945312 67.921875 95.550781 C 67.382812 95.160156 66.679688 95.125 65.808594 95.441406 L 35.234375 106.574219 C 33.316406 107.273438 32.089844 108.503906 31.546875 110.269531 L 27.53125 122.011719 C 27.179688 123.164062 26.53125 124.085938 25.59375 124.785156 Z M 79.375 158.53125 C 35.597656 158.53125 0.109375 123.042969 0.109375 79.265625 C 0.109375 35.488281 35.597656 0 79.375 0 C 123.152344 0 158.640625 35.488281 158.640625 79.265625 C 158.640625 123.042969 123.152344 158.53125 79.375 158.53125 Z M 79.375 158.53125 " fill-opacity="1" fill-rule="nonzero"/></g><g fill="#f2eddb" fill-opacity="1"><g transform="translate(67.725577, 164.2637)"><g><path d="M 0.125 -1.015625 L 0.4375 -1.015625 L 0.4375 -3.8125 L 0.125 -3.8125 L 0.125 -4.84375 L 2.984375 -4.84375 C 3.492188 -4.84375 3.894531 -4.734375 4.1875 -4.515625 C 4.476562 -4.304688 4.625 -4.003906 4.625 -3.609375 C 4.625 -3.367188 4.566406 -3.164062 4.453125 -3 C 4.335938 -2.832031 4.203125 -2.703125 4.046875 -2.609375 C 3.890625 -2.523438 3.738281 -2.46875 3.59375 -2.4375 L 3.59375 -2.375 C 3.882812 -2.351562 4.148438 -2.257812 4.390625 -2.09375 C 4.628906 -1.9375 4.75 -1.65625 4.75 -1.25 C 4.75 -0.820312 4.582031 -0.503906 4.25 -0.296875 C 3.925781 -0.0976562 3.503906 0 2.984375 0 L 0.125 0 Z M 2.515625 -2.796875 C 2.628906 -2.796875 2.71875 -2.828125 2.78125 -2.890625 C 2.84375 -2.953125 2.875 -3.054688 2.875 -3.203125 L 2.875 -3.421875 C 2.875 -3.554688 2.84375 -3.65625 2.78125 -3.71875 C 2.71875 -3.78125 2.628906 -3.8125 2.515625 -3.8125 L 2.171875 -3.8125 L 2.171875 -2.796875 Z M 2.5625 -1.015625 C 2.675781 -1.015625 2.765625 -1.046875 2.828125 -1.109375 C 2.890625 -1.179688 2.921875 -1.285156 2.921875 -1.421875 L 2.921875 -1.6875 C 2.921875 -1.820312 2.890625 -1.921875 2.828125 -1.984375 C 2.765625 -2.054688 2.675781 -2.09375 2.5625 -2.09375 L 2.171875 -2.09375 L 2.171875 -1.015625 Z M 2.5625 -1.015625 "/></g></g></g><g fill="#f2eddb" fill-opacity="1"><g transform="translate(72.806236, 164.2637)"><g><path d="M 0.125 0 L 0.125 -1.015625 L 0.4375 -1.015625 L 0.4375 -3.8125 L 0.125 -3.8125 L 0.125 -4.84375 L 2.75 -4.84375 L 2.75 -3.8125 L 2.171875 -3.8125 L 2.171875 -1.015625 L 2.734375 -1.015625 L 2.734375 -1.59375 L 3.96875 -1.59375 L 3.96875 0 Z M 0.125 0 "/></g></g></g><g fill="#f2eddb" fill-opacity="1"><g transform="translate(77.128232, 164.2637)"><g><path d="M 4.6875 -1.015625 L 4.9375 -1.015625 L 4.9375 0 L 2.5 0 L 2.5 -1.015625 L 2.875 -1.015625 L 2.78125 -1.515625 L 1.921875 -1.515625 L 1.828125 -1.015625 L 2.203125 -1.015625 L 2.203125 0 L 0.078125 0 L 0.078125 -1.015625 L 0.328125 -1.015625 L 1.375 -4.84375 L 3.640625 -4.84375 Z M 2.0625 -2.171875 L 2.640625 -2.171875 L 2.375 -3.40625 L 2.3125 -3.40625 Z M 2.0625 -2.171875 "/></g></g></g><g fill="#f2eddb" fill-opacity="1"><g transform="translate(82.401666, 164.2637)"><g><path d="M 2.953125 -1.53125 L 4.203125 -1.53125 L 4.203125 0 L 0.09375 0 L 0.09375 -0.890625 L 2 -3.8125 L 1.359375 -3.8125 L 1.359375 -3.3125 L 0.125 -3.3125 L 0.125 -4.84375 L 4.09375 -4.84375 L 4.09375 -3.9375 L 2.1875 -1.015625 L 2.953125 -1.015625 Z M 2.953125 -1.53125 "/></g></g></g><g fill="#f2eddb" fill-opacity="1"><g transform="translate(86.94753, 164.2637)"><g><path d="M 0.125 0 L 0.125 -1.015625 L 0.4375 -1.015625 L 0.4375 -3.8125 L 0.125 -3.8125 L 0.125 -4.84375 L 4.328125 -4.84375 L 4.328125 -2.953125 L 2.921875 -2.953125 L 2.921875 -3.8125 L 2.171875 -3.8125 L 2.171875 -2.828125 L 2.71875 -2.828125 L 2.71875 -2.125 L 2.171875 -2.125 L 2.171875 -1.015625 L 2.921875 -1.015625 L 2.921875 -2 L 4.328125 -2 L 4.328125 0 Z M 0.125 0 "/></g></g></g><path stroke-linecap="butt" transform="matrix(0.111015, 0, 0, 0.111015, 67.549782, 159.163415)" fill="none" stroke-linejoin="miter" d="M 1.13498 37.796497 L 3.949927 37.796497 L 3.949927 12.602722 L 1.13498 12.602722 L 1.13498 3.418958 L 26.856558 3.418958 C 31.536407 3.418958 35.160651 4.369002 37.764477 6.269092 C 40.40349 8.169181 41.705403 10.878567 41.705403 14.432438 C 41.705403 16.649208 41.1776 18.514111 40.121995 20.027145 C 39.06639 21.540179 37.870038 22.666157 36.462564 23.440268 C 35.055091 24.214378 33.717991 24.706994 32.380891 24.988489 L 32.380891 25.551478 C 35.055091 25.797786 37.447796 26.64227 39.559006 28.08493 C 41.705403 29.492404 42.761008 32.025856 42.761008 35.685287 C 42.761008 39.626213 41.283161 42.476347 38.327466 44.306062 C 35.371772 46.100591 31.571594 47.015449 26.856558 47.015449 L 1.13498 47.015449 Z M 22.669324 21.786487 C 23.724929 21.786487 24.534226 21.504992 25.097216 20.942002 C 25.625018 20.343826 25.906513 19.428969 25.906513 18.197429 L 25.906513 16.19178 C 25.906513 14.96024 25.625018 14.045382 25.097216 13.482393 C 24.534226 12.884217 23.724929 12.602722 22.669324 12.602722 L 19.643256 12.602722 L 19.643256 21.786487 Z M 23.021192 37.796497 C 24.111984 37.796497 24.921282 37.515003 25.484271 36.952013 C 26.012074 36.353837 26.293568 35.438979 26.293568 34.20744 L 26.293568 31.744361 C 26.293568 30.512822 26.012074 29.633151 25.484271 29.070162 C 24.921282 28.471986 24.111984 28.190491 23.021192 28.190491 L 19.643256 28.190491 L 19.643256 37.796497 Z M 46.913055 47.015449 L 46.913055 37.796497 L 49.692815 37.796497 L 49.692815 12.602722 L 46.913055 12.602722 L 46.913055 3.418958 L 70.523422 3.418958 L 70.523422 12.602722 L 65.386144 12.602722 L 65.386144 37.796497 L 70.417862 37.796497 L 70.417862 32.659219 L 81.572089 32.659219 L 81.572089 47.015449 Z M 126.963108 37.796497 L 129.215066 37.796497 L 129.215066 47.015449 L 107.25848 47.015449 L 107.25848 37.796497 L 110.601229 37.796497 L 109.721558 33.327769 L 102.086015 33.327769 L 101.171157 37.796497 L 104.549093 37.796497 L 104.549093 47.015449 L 85.372267 47.015449 L 85.372267 37.796497 L 87.624225 37.796497 L 97.089484 3.418958 L 117.497849 3.418958 Z M 103.317554 27.381194 L 108.490019 27.381194 L 106.167688 16.226966 L 105.604698 16.226966 Z M 158.877569 33.222209 L 170.031797 33.222209 L 170.031797 47.015449 L 132.980057 47.015449 L 132.980057 38.922476 L 150.256794 12.602722 L 144.415779 12.602722 L 144.415779 17.177011 L 133.296739 17.177011 L 133.296739 3.418958 L 169.152126 3.418958 L 169.152126 11.476743 L 151.945762 37.796497 L 158.877569 37.796497 Z M 174.289404 47.015449 L 174.289404 37.796497 L 177.104351 37.796497 L 177.104351 12.602722 L 174.289404 12.602722 L 174.289404 3.418958 L 212.115253 3.418958 L 212.115253 20.308639 L 199.553553 20.308639 L 199.553553 12.602722 L 192.762493 12.602722 L 192.762493 21.434618 L 197.68865 21.434618 L 197.68865 27.838622 L 192.762493 27.838622 L 192.762493 37.796497 L 199.553553 37.796497 L 199.553553 28.964601 L 212.115253 28.964601 L 212.115253 47.015449 Z M 174.289404 47.015449 " stroke="#b76e22" stroke-width="1.295842" stroke-opacity="1" stroke-miterlimit="4"/></svg>