<svg xmlns="http://www.w3.org/2000/svg" xmlns:xlink="http://www.w3.org/1999/xlink" width="858" zoomAndPan="magnify" viewBox="0 0 643.5 185.999996" height="248" preserveAspectRatio="xMidYMid meet" version="1.0"><defs><g/><clipPath id="013cd7d283"><path d="M 268.570312 0.0703125 L 427.445312 0.0703125 L 427.445312 158.949219 L 268.570312 158.949219 Z M 268.570312 0.0703125 " clip-rule="nonzero"/></clipPath></defs><g clip-path="url(#013cd7d283)"><path fill="#ffffff" d="M 294.105469 125.128906 C 307.058594 140.417969 326.398438 150.121094 348.007812 150.121094 C 387.003906 150.121094 418.617188 118.507812 418.617188 79.511719 C 418.617188 40.511719 387.003906 8.898438 348.007812 8.898438 C 309.585938 8.898438 278.328125 39.585938 277.414062 77.789062 C 278.386719 77.824219 279.304688 78.117188 280.164062 78.675781 L 290.804688 85.101562 C 292.355469 86.109375 294.09375 86.261719 296.015625 85.5625 L 326.65625 74.402344 C 327.355469 74.148438 327.828125 73.683594 328.074219 73.003906 C 328.320312 72.324219 328.144531 71.703125 327.542969 71.136719 L 297.171875 36.5625 C 296.746094 35.933594 296.613281 35.296875 296.773438 34.648438 C 296.933594 34 297.359375 33.550781 298.058594 33.296875 L 307.488281 29.863281 C 309.234375 29.226562 310.914062 29.5 312.527344 30.675781 L 356.445312 60.90625 C 357.886719 62.144531 359.566406 62.417969 361.488281 61.71875 L 388.984375 51.703125 C 390.730469 51.066406 392.484375 50.722656 394.246094 50.671875 L 396.363281 50.785156 C 397.597656 50.921875 399.019531 51.289062 400.617188 51.882812 C 402.21875 52.476562 403.414062 53.320312 404.203125 54.40625 C 404.503906 54.6875 404.746094 54.945312 404.929688 55.171875 C 405.109375 55.398438 405.234375 55.601562 405.296875 55.773438 C 405.722656 56.402344 406.03125 56.976562 406.21875 57.5 C 406.410156 58.019531 406.511719 58.570312 406.523438 59.152344 C 407.261719 62.808594 405.535156 66.480469 401.339844 70.167969 C 400.019531 71.433594 398.488281 72.386719 396.742188 73.019531 L 369.242188 83.035156 C 367.320312 83.734375 366.207031 85.023438 365.902344 86.902344 L 351.679688 138.300781 C 351.199219 140.242188 350.085938 141.53125 348.339844 142.167969 L 338.910156 145.601562 C 338.214844 145.855469 337.59375 145.785156 337.058594 145.394531 C 336.519531 145 336.210938 144.425781 336.132812 143.667969 L 337.1875 97.652344 C 337.285156 96.832031 337.066406 96.226562 336.527344 95.832031 C 335.988281 95.441406 335.28125 95.402344 334.410156 95.71875 L 303.769531 106.878906 C 301.847656 107.578125 300.617188 108.8125 300.074219 110.578125 L 296.050781 122.347656 C 295.695312 123.503906 295.046875 124.429688 294.105469 125.128906 Z M 348.007812 158.949219 C 304.132812 158.949219 268.570312 123.382812 268.570312 79.511719 C 268.570312 35.636719 304.132812 0.0703125 348.007812 0.0703125 C 391.878906 0.0703125 427.445312 35.636719 427.445312 79.511719 C 427.445312 123.382812 391.878906 158.949219 348.007812 158.949219 Z M 348.007812 158.949219 " fill-opacity="1" fill-rule="nonzero"/></g><g fill="#f2eddb" fill-opacity="1"><g transform="translate(21.809713, 101.878143)"><g><path d="M 38.65625 -27.046875 L 29.984375 -27.046875 L 29.984375 -30.984375 L 26.75 -30.984375 L 26.75 -8.28125 L 30.28125 -8.28125 L 30.28125 0 L 9.078125 0 L 9.078125 -8.28125 L 12.609375 -8.28125 L 12.609375 -30.984375 L 9.390625 -30.984375 L 9.390625 -27.046875 L 0.703125 -27.046875 L 0.703125 -39.265625 L 38.65625 -39.265625 Z M 38.65625 -27.046875 "/></g></g></g><g fill="#f2eddb" fill-opacity="1"><g transform="translate(63.290584, 101.878143)"><g><path d="M 1.015625 -8.28125 L 3.53125 -8.28125 L 3.53125 -30.984375 L 1.015625 -30.984375 L 1.015625 -39.265625 L 24.171875 -39.265625 C 28.515625 -39.265625 31.828125 -38.375 34.109375 -36.59375 C 36.398438 -34.8125 37.546875 -31.914062 37.546875 -27.90625 C 37.546875 -25.65625 37.09375 -23.703125 36.1875 -22.046875 C 35.28125 -20.398438 33.984375 -19.257812 32.296875 -18.625 L 32.34375 -18.125 C 35.582031 -17.613281 37.203125 -15.625 37.203125 -12.15625 L 37.203125 -8.28125 L 39.5625 -8.28125 L 39.5625 0 L 23.5625 0 L 23.5625 -11.859375 C 23.5625 -13.171875 23.367188 -14.160156 22.984375 -14.828125 C 22.597656 -15.503906 21.992188 -15.957031 21.171875 -16.1875 C 20.347656 -16.425781 19.175781 -16.546875 17.65625 -16.546875 L 17.65625 -8.28125 L 21 -8.28125 L 21 0 L 1.015625 0 Z M 20.390625 -22.703125 C 21.367188 -22.703125 22.097656 -22.960938 22.578125 -23.484375 C 23.066406 -24.015625 23.3125 -24.832031 23.3125 -25.9375 L 23.3125 -27.75 C 23.3125 -28.863281 23.066406 -29.679688 22.578125 -30.203125 C 22.097656 -30.722656 21.367188 -30.984375 20.390625 -30.984375 L 17.65625 -30.984375 L 17.65625 -22.703125 Z M 20.390625 -22.703125 "/></g></g></g><g fill="#f2eddb" fill-opacity="1"><g transform="translate(105.780705, 101.878143)"><g><path d="M 38.046875 -8.28125 L 40.078125 -8.28125 L 40.078125 0 L 20.28125 0 L 20.28125 -8.28125 L 23.3125 -8.28125 L 22.515625 -12.3125 L 15.640625 -12.3125 L 14.84375 -8.28125 L 17.859375 -8.28125 L 17.859375 0 L 0.609375 0 L 0.609375 -8.28125 L 2.625 -8.28125 L 11.15625 -39.265625 L 29.53125 -39.265625 Z M 16.75 -17.65625 L 21.40625 -17.65625 L 19.328125 -27.703125 L 18.828125 -27.703125 Z M 16.75 -17.65625 "/></g></g></g><g fill="#f2eddb" fill-opacity="1"><g transform="translate(148.573592, 101.878143)"><g><path d="M 22.203125 -39.265625 L 39.0625 -39.265625 L 39.0625 -30.984375 L 37.046875 -30.984375 L 28.015625 0 L 11.65625 0 L 2.625 -30.984375 L 0.609375 -30.984375 L 0.609375 -39.265625 L 19.984375 -39.265625 L 19.984375 -30.984375 L 17.359375 -30.984375 L 20.84375 -14.078125 L 21.34375 -14.078125 L 24.828125 -30.984375 L 22.203125 -30.984375 Z M 22.203125 -39.265625 "/></g></g></g><g fill="#f2eddb" fill-opacity="1"><g transform="translate(190.357238, 101.878143)"><g><path d="M 1.015625 0 L 1.015625 -8.28125 L 3.53125 -8.28125 L 3.53125 -30.984375 L 1.015625 -30.984375 L 1.015625 -39.265625 L 35.078125 -39.265625 L 35.078125 -24.015625 L 23.765625 -24.015625 L 23.765625 -30.984375 L 17.65625 -30.984375 L 17.65625 -23.015625 L 22.109375 -23.015625 L 22.109375 -17.265625 L 17.65625 -17.265625 L 17.65625 -8.28125 L 23.765625 -8.28125 L 23.765625 -16.25 L 35.078125 -16.25 L 35.078125 0 Z M 1.015625 0 "/></g></g></g><g fill="#f2eddb" fill-opacity="1"><g transform="translate(228.457121, 101.878143)"><g><path d="M 1.015625 0 L 1.015625 -8.28125 L 3.53125 -8.28125 L 3.53125 -30.984375 L 1.015625 -30.984375 L 1.015625 -39.265625 L 22.3125 -39.265625 L 22.3125 -30.984375 L 17.65625 -30.984375 L 17.65625 -8.28125 L 22.203125 -8.28125 L 22.203125 -12.921875 L 32.25 -12.921875 L 32.25 0 Z M 1.015625 0 "/></g></g></g><path stroke-linecap="butt" transform="matrix(0.900861, 0, 0, 0.900861, 20.369101, 60.490387)" fill="none" stroke-linejoin="miter" d="M 42.955908 16.973608 L 33.312357 16.973608 L 33.312357 12.598453 L 29.730714 12.598453 L 29.730714 37.808709 L 33.654911 37.808709 L 33.654911 47.001302 L 10.114066 47.001302 L 10.114066 37.808709 L 14.038262 37.808709 L 14.038262 12.598453 L 10.45662 12.598453 L 10.45662 16.973608 L 0.813068 16.973608 L 0.813068 3.40586 L 42.955908 3.40586 Z M 47.196642 37.808709 L 50.002118 37.808709 L 50.002118 12.598453 L 47.196642 12.598453 L 47.196642 3.40586 L 72.914225 3.40586 C 77.731664 3.40586 81.404366 4.394497 83.941001 6.371772 C 86.486309 8.353383 87.756795 11.566455 87.756795 16.015323 C 87.756795 18.51727 87.249468 20.680998 86.23915 22.515181 C 85.237504 24.349364 83.797909 25.619849 81.929037 26.330975 L 81.998415 26.890335 C 85.584394 27.449696 87.375216 29.648113 87.375216 33.498596 L 87.375216 37.808709 L 90.00291 37.808709 L 90.00291 47.001302 L 72.246461 47.001302 L 72.246461 33.828142 C 72.246461 32.375539 72.029654 31.278498 71.600378 30.528348 C 71.175437 29.782533 70.499001 29.279542 69.579741 29.023711 C 68.664818 28.759207 67.372652 28.629123 65.69457 28.629123 L 65.69457 37.808709 L 69.384616 37.808709 L 69.384616 47.001302 L 47.196642 47.001302 Z M 68.716852 21.791047 C 69.800884 21.791047 70.61174 21.500527 71.14942 20.928158 C 71.6871 20.34278 71.95594 19.436529 71.95594 18.205068 L 71.95594 16.180096 C 71.95594 14.948635 71.6871 14.046721 71.14942 13.474352 C 70.61174 12.888974 69.800884 12.598453 68.716852 12.598453 L 65.69457 12.598453 L 65.69457 21.791047 Z M 135.484569 37.808709 L 137.726348 37.808709 L 137.726348 47.001302 L 115.772526 47.001302 L 115.772526 37.808709 L 119.124354 37.808709 L 118.235447 33.333823 L 110.616868 33.333823 L 109.714953 37.808709 L 113.079789 37.808709 L 113.079789 47.001302 L 93.914098 47.001302 L 93.914098 37.808709 L 96.155877 37.808709 L 105.621647 3.40586 L 126.018799 3.40586 Z M 111.848329 27.384654 L 117.003986 27.384654 L 114.705838 16.236466 L 114.146477 16.236466 Z M 165.395188 3.40586 L 184.109922 3.40586 L 184.109922 12.598453 L 181.863807 12.598453 L 171.838676 47.001302 L 153.687639 47.001302 L 143.658173 12.598453 L 141.416394 12.598453 L 141.416394 3.40586 L 162.932267 3.40586 L 162.932267 12.598453 L 160.018388 12.598453 L 163.890551 31.365221 L 164.449912 31.365221 L 168.309067 12.598453 L 165.395188 12.598453 Z M 188.250925 47.001302 L 188.250925 37.808709 L 191.052065 37.808709 L 191.052065 12.598453 L 188.250925 12.598453 L 188.250925 3.40586 L 226.070644 3.40586 L 226.070644 20.325436 L 213.513214 20.325436 L 213.513214 12.598453 L 206.744516 12.598453 L 206.744516 21.448493 L 211.666023 21.448493 L 211.666023 27.835611 L 206.744516 27.835611 L 206.744516 37.808709 L 213.513214 37.808709 L 213.513214 28.958669 L 226.070644 28.958669 L 226.070644 47.001302 Z M 230.541193 47.001302 L 230.541193 37.808709 L 233.346669 37.808709 L 233.346669 12.598453 L 230.541193 12.598453 L 230.541193 3.40586 L 254.177434 3.40586 L 254.177434 12.598453 L 249.034784 12.598453 L 249.034784 37.808709 L 254.06903 37.808709 L 254.06903 32.648715 L 265.217218 32.648715 L 265.217218 47.001302 Z M 230.541193 47.001302 " stroke="#b76e22" stroke-width="1.295842" stroke-opacity="1" stroke-miterlimit="4"/><g fill="#f2eddb" fill-opacity="1"><g transform="translate(429.941036, 101.878143)"><g><path d="M 1.015625 -8.28125 L 3.53125 -8.28125 L 3.53125 -30.984375 L 1.015625 -30.984375 L 1.015625 -39.265625 L 24.171875 -39.265625 C 28.378906 -39.265625 31.660156 -38.40625 34.015625 -36.6875 C 36.367188 -34.96875 37.546875 -32.515625 37.546875 -29.328125 C 37.546875 -27.335938 37.070312 -25.660156 36.125 -24.296875 C 35.1875 -22.929688 34.085938 -21.90625 32.828125 -21.21875 C 31.566406 -20.53125 30.347656 -20.066406 29.171875 -19.828125 L 29.171875 -19.328125 C 31.554688 -19.085938 33.707031 -18.328125 35.625 -17.046875 C 37.539062 -15.773438 38.5 -13.488281 38.5 -10.1875 C 38.5 -6.65625 37.171875 -4.070312 34.515625 -2.4375 C 31.859375 -0.8125 28.410156 0 24.171875 0 L 1.015625 0 Z M 20.390625 -22.703125 C 21.367188 -22.703125 22.097656 -22.960938 22.578125 -23.484375 C 23.066406 -24.015625 23.3125 -24.832031 23.3125 -25.9375 L 23.3125 -27.75 C 23.3125 -28.863281 23.066406 -29.679688 22.578125 -30.203125 C 22.097656 -30.722656 21.367188 -30.984375 20.390625 -30.984375 L 17.65625 -30.984375 L 17.65625 -22.703125 Z M 20.75 -8.28125 C 21.71875 -8.28125 22.445312 -8.539062 22.9375 -9.0625 C 23.425781 -9.582031 23.671875 -10.394531 23.671875 -11.5 L 23.671875 -13.734375 C 23.671875 -14.835938 23.425781 -15.648438 22.9375 -16.171875 C 22.445312 -16.691406 21.71875 -16.953125 20.75 -16.953125 L 17.65625 -16.953125 L 17.65625 -8.28125 Z M 20.75 -8.28125 "/></g></g></g><g fill="#f2eddb" fill-opacity="1"><g transform="translate(471.169586, 101.878143)"><g><path d="M 1.015625 0 L 1.015625 -8.28125 L 3.53125 -8.28125 L 3.53125 -30.984375 L 1.015625 -30.984375 L 1.015625 -39.265625 L 22.3125 -39.265625 L 22.3125 -30.984375 L 17.65625 -30.984375 L 17.65625 -8.28125 L 22.203125 -8.28125 L 22.203125 -12.921875 L 32.25 -12.921875 L 32.25 0 Z M 1.015625 0 "/></g></g></g><g fill="#f2eddb" fill-opacity="1"><g transform="translate(506.241733, 101.878143)"><g><path d="M 38.046875 -8.28125 L 40.078125 -8.28125 L 40.078125 0 L 20.28125 0 L 20.28125 -8.28125 L 23.3125 -8.28125 L 22.515625 -12.3125 L 15.640625 -12.3125 L 14.84375 -8.28125 L 17.859375 -8.28125 L 17.859375 0 L 0.609375 0 L 0.609375 -8.28125 L 2.625 -8.28125 L 11.15625 -39.265625 L 29.53125 -39.265625 Z M 16.75 -17.65625 L 21.40625 -17.65625 L 19.328125 -27.703125 L 18.828125 -27.703125 Z M 16.75 -17.65625 "/></g></g></g><g fill="#f2eddb" fill-opacity="1"><g transform="translate(549.034621, 101.878143)"><g><path d="M 24.015625 -12.421875 L 34.0625 -12.421875 L 34.0625 0 L 0.703125 0 L 0.703125 -7.265625 L 16.25 -30.984375 L 11 -30.984375 L 11 -26.84375 L 0.953125 -26.84375 L 0.953125 -39.265625 L 33.265625 -39.265625 L 33.265625 -32 L 17.765625 -8.28125 L 24.015625 -8.28125 Z M 24.015625 -12.421875 "/></g></g></g><g fill="#f2eddb" fill-opacity="1"><g transform="translate(585.923408, 101.878143)"><g><path d="M 1.015625 0 L 1.015625 -8.28125 L 3.53125 -8.28125 L 3.53125 -30.984375 L 1.015625 -30.984375 L 1.015625 -39.265625 L 35.078125 -39.265625 L 35.078125 -24.015625 L 23.765625 -24.015625 L 23.765625 -30.984375 L 17.65625 -30.984375 L 17.65625 -23.015625 L 22.109375 -23.015625 L 22.109375 -17.265625 L 17.65625 -17.265625 L 17.65625 -8.28125 L 23.765625 -8.28125 L 23.765625 -16.25 L 35.078125 -16.25 L 35.078125 0 Z M 1.015625 0 "/></g></g></g><path stroke-linecap="butt" transform="matrix(0.900861, 0, 0, 0.900861, 428.514506, 60.490387)" fill="none" stroke-linejoin="miter" d="M 1.137308 37.808709 L 3.942784 37.808709 L 3.942784 12.598453 L 1.137308 12.598453 L 1.137308 3.40586 L 26.85489 3.40586 C 31.524901 3.40586 35.162914 4.355472 37.768927 6.263369 C 40.387949 8.171266 41.69746 10.894355 41.69746 14.445644 C 41.69746 16.648398 41.172789 18.512934 40.123446 20.026243 C 39.082775 21.539552 37.859986 22.679954 36.45508 23.443113 C 35.063183 24.210607 33.705974 24.722271 32.392127 24.978102 L 32.392127 25.537463 C 35.050174 25.801967 37.439382 26.647512 39.564085 28.069762 C 41.69746 29.483341 42.764148 32.019976 42.764148 35.688341 C 42.764148 39.608202 41.285528 42.47872 38.332624 44.291222 C 35.384056 46.095051 31.55959 47.001302 26.85489 47.001302 L 1.137308 47.001302 Z M 22.653181 21.791047 C 23.741549 21.791047 24.552406 21.500527 25.090086 20.928158 C 25.627766 20.34278 25.896606 19.436529 25.896606 18.205068 L 25.896606 16.180096 C 25.896606 14.948635 25.627766 14.046721 25.090086 13.474352 C 24.552406 12.888974 23.741549 12.598453 22.653181 12.598453 L 19.630899 12.598453 L 19.630899 21.791047 Z M 23.039097 37.808709 C 24.123129 37.808709 24.933985 37.518188 25.471665 36.945819 C 26.018017 36.360441 26.29553 35.45419 26.29553 34.22273 L 26.29553 31.759808 C 26.29553 30.528348 26.018017 29.626433 25.471665 29.054064 C 24.933985 28.468686 24.123129 28.178166 23.039097 28.178166 L 19.630899 28.178166 L 19.630899 37.808709 Z M 46.905152 47.001302 L 46.905152 37.808709 L 49.706291 37.808709 L 49.706291 12.598453 L 46.905152 12.598453 L 46.905152 3.40586 L 70.541392 3.40586 L 70.541392 12.598453 L 65.398743 12.598453 L 65.398743 37.808709 L 70.432989 37.808709 L 70.432989 32.648715 L 81.581177 32.648715 L 81.581177 47.001302 Z M 126.954433 37.808709 L 129.196212 37.808709 L 129.196212 47.001302 L 107.242389 47.001302 L 107.242389 37.808709 L 110.594217 37.808709 L 109.705311 33.333823 L 102.086732 33.333823 L 101.184817 37.808709 L 104.549653 37.808709 L 104.549653 47.001302 L 85.383962 47.001302 L 85.383962 37.808709 L 87.625741 37.808709 L 97.091511 3.40586 L 117.488663 3.40586 Z M 103.318192 27.384654 L 108.47385 27.384654 L 106.175702 16.236466 L 105.616341 16.236466 Z M 158.890024 33.212412 L 170.038212 33.212412 L 170.038212 47.001302 L 132.994661 47.001302 L 132.994661 38.92743 L 150.256791 12.598453 L 144.429033 12.598453 L 144.429033 17.19475 L 133.280845 17.19475 L 133.280845 3.40586 L 169.136298 3.40586 L 169.136298 11.475396 L 151.939209 37.808709 L 158.890024 37.808709 Z M 174.283283 47.001302 L 174.283283 37.808709 L 177.088759 37.808709 L 177.088759 12.598453 L 174.283283 12.598453 L 174.283283 3.40586 L 212.107338 3.40586 L 212.107338 20.325436 L 199.549908 20.325436 L 199.549908 12.598453 L 192.78121 12.598453 L 192.78121 21.448493 L 197.702717 21.448493 L 197.702717 27.835611 L 192.78121 27.835611 L 192.78121 37.808709 L 199.549908 37.808709 L 199.549908 28.958669 L 212.107338 28.958669 L 212.107338 47.001302 Z M 174.283283 47.001302 " stroke="#b76e22" stroke-width="1.295842" stroke-opacity="1" stroke-miterlimit="4"/></svg>